<svg xmlns="http://www.w3.org/2000/svg" version="1.1" xmlns:xlink="http://www.w3.org/1999/xlink" xmlns:svgjs="http://svgjs.dev/svgjs" width="1440" height="560" preserveAspectRatio="none" viewBox="0 0 1440 560">
    <g mask="url(&quot;#SvgjsMask1000&quot;)" fill="none">
        <rect width="1440" height="560" x="0" y="0" fill="#0e2a47"></rect>
        <path d="M-105.63 406.47L-105.63 406.47" stroke="#132e65" stroke-width="1.5"></path>
        <path d="M-105.63 406.47L-88.34 548.15" stroke="#132e65" stroke-width="1.5"></path>
        <path d="M-105.63 406.47L46.68 544.59" stroke="#132e65" stroke-width="1.5"></path>
        <path d="M-105.63 406.47L109.95 402.24" stroke="#132e65" stroke-width="1.5"></path>
        <path d="M-105.63 406.47L-83.07 675.64" stroke="#132e65" stroke-width="1.5"></path>
        <path d="M-105.63 406.47L203.99 496.84" stroke="#132e65" stroke-width="1.5"></path>
        <path d="M-88.34 548.15L-88.34 548.15" stroke="#132e65" stroke-width="1.5"></path>
        <path d="M-88.34 548.15L-83.07 675.64" stroke="#132e65" stroke-width="1.5"></path>
        <path d="M-83.07 675.64L-83.07 675.64" stroke="#132e65" stroke-width="1.5"></path>
        <path d="M-83.07 675.64L46.68 544.59" stroke="#132e65" stroke-width="1.5"></path>
        <path d="M109.95 402.24L109.95 402.24" stroke="#132e65" stroke-width="1.5"></path>
        <path d="M109.95 402.24L203.99 496.84" stroke="#132e65" stroke-width="1.5"></path>
        <path d="M109.95 402.24L46.68 544.59" stroke="#132e65" stroke-width="1.5"></path>
        <path d="M109.95 402.24L256.39 348.75" stroke="#132e65" stroke-width="1.5"></path>
        <path d="M109.95 402.24L-88.34 548.15" stroke="#132e65" stroke-width="1.5"></path>
        <path d="M109.95 402.24L369.13 509.8" stroke="#132e65" stroke-width="1.5"></path>
        <path d="M46.68 544.59L46.68 544.59" stroke="#132e65" stroke-width="1.5"></path>
        <path d="M46.68 544.59L-88.34 548.15" stroke="#132e65" stroke-width="1.5"></path>
        <path d="M46.68 544.59L203.99 496.84" stroke="#132e65" stroke-width="1.5"></path>
        <path d="M256.39 348.75L256.39 348.75" stroke="#132e65" stroke-width="1.5"></path>
        <path d="M256.39 348.75L203.99 496.84" stroke="#132e65" stroke-width="1.5"></path>
        <path d="M203.99 496.84L203.99 496.84" stroke="#132e65" stroke-width="1.5"></path>
        <path d="M369.13 509.8L369.13 509.8" stroke="#132e65" stroke-width="1.5"></path>
        <path d="M369.13 509.8L523.91 541.45" stroke="#132e65" stroke-width="1.5"></path>
        <path d="M369.13 509.8L203.99 496.84" stroke="#132e65" stroke-width="1.5"></path>
        <path d="M369.13 509.8L353.8 677.77" stroke="#132e65" stroke-width="1.5"></path>
        <path d="M353.8 677.77L353.8 677.77" stroke="#132e65" stroke-width="1.5"></path>
        <path d="M353.8 677.77L504.53 694.08" stroke="#132e65" stroke-width="1.5"></path>
        <path d="M353.8 677.77L523.91 541.45" stroke="#132e65" stroke-width="1.5"></path>
        <path d="M353.8 677.77L203.99 496.84" stroke="#132e65" stroke-width="1.5"></path>
        <path d="M353.8 677.77L46.68 544.59" stroke="#132e65" stroke-width="1.5"></path>
        <path d="M556.29 379.21L556.29 379.21" stroke="#132e65" stroke-width="1.5"></path>
        <path d="M556.29 379.21L685.51 345.52" stroke="#132e65" stroke-width="1.5"></path>
        <path d="M556.29 379.21L523.91 541.45" stroke="#132e65" stroke-width="1.5"></path>
        <path d="M556.29 379.21L705.67 497.95" stroke="#132e65" stroke-width="1.5"></path>
        <path d="M556.29 379.21L696.39 247.42" stroke="#132e65" stroke-width="1.5"></path>
        <path d="M523.91 541.45L523.91 541.45" stroke="#132e65" stroke-width="1.5"></path>
        <path d="M523.91 541.45L504.53 694.08" stroke="#132e65" stroke-width="1.5"></path>
        <path d="M504.53 694.08L504.53 694.08" stroke="#132e65" stroke-width="1.5"></path>
        <path d="M696.39 247.42L696.39 247.42" stroke="#132e65" stroke-width="1.5"></path>
        <path d="M696.39 247.42L793.04 256.82" stroke="#132e65" stroke-width="1.5"></path>
        <path d="M696.39 247.42L685.51 345.52" stroke="#132e65" stroke-width="1.5"></path>
        <path d="M696.39 247.42L852.63 345.61" stroke="#132e65" stroke-width="1.5"></path>
        <path d="M696.39 247.42L705.67 497.95" stroke="#132e65" stroke-width="1.5"></path>
        <path d="M685.51 345.52L685.51 345.52" stroke="#132e65" stroke-width="1.5"></path>
        <path d="M705.67 497.95L705.67 497.95" stroke="#132e65" stroke-width="1.5"></path>
        <path d="M705.67 497.95L685.51 345.52" stroke="#132e65" stroke-width="1.5"></path>
        <path d="M705.67 497.95L523.91 541.45" stroke="#132e65" stroke-width="1.5"></path>
        <path d="M699.31 699.54L699.31 699.54" stroke="#132e65" stroke-width="1.5"></path>
        <path d="M699.31 699.54L825.48 694.43" stroke="#132e65" stroke-width="1.5"></path>
        <path d="M699.31 699.54L504.53 694.08" stroke="#132e65" stroke-width="1.5"></path>
        <path d="M699.31 699.54L705.67 497.95" stroke="#132e65" stroke-width="1.5"></path>
        <path d="M793.04 256.82L793.04 256.82" stroke="#132e65" stroke-width="1.5"></path>
        <path d="M793.04 256.82L852.63 345.61" stroke="#132e65" stroke-width="1.5"></path>
        <path d="M793.04 256.82L685.51 345.52" stroke="#132e65" stroke-width="1.5"></path>
        <path d="M852.63 345.61L852.63 345.61" stroke="#132e65" stroke-width="1.5"></path>
        <path d="M825.48 694.43L825.48 694.43" stroke="#132e65" stroke-width="1.5"></path>
        <path d="M825.48 694.43L963.1 660.2" stroke="#132e65" stroke-width="1.5"></path>
        <path d="M825.48 694.43L705.67 497.95" stroke="#132e65" stroke-width="1.5"></path>
        <path d="M966.33 -66.13L966.33 -66.13" stroke="#132e65" stroke-width="1.5"></path>
        <path d="M966.33 -66.13L1008.12 51.46" stroke="#132e65" stroke-width="1.5"></path>
        <path d="M966.33 -66.13L1089.75 -45.3" stroke="#132e65" stroke-width="1.5"></path>
        <path d="M966.33 -66.13L1104.57 109.41" stroke="#132e65" stroke-width="1.5"></path>
        <path d="M966.33 -66.13L1244.61 -94.75" stroke="#132e65" stroke-width="1.5"></path>
        <path d="M966.33 -66.13L965.51 221" stroke="#132e65" stroke-width="1.5"></path>
        <path d="M966.33 -66.13L1245.79 79.44" stroke="#132e65" stroke-width="1.5"></path>
        <path d="M1008.12 51.46L1008.12 51.46" stroke="#132e65" stroke-width="1.5"></path>
        <path d="M1008.12 51.46L1104.57 109.41" stroke="#132e65" stroke-width="1.5"></path>
        <path d="M965.51 221L965.51 221" stroke="#132e65" stroke-width="1.5"></path>
        <path d="M965.51 221L982.87 351.45" stroke="#132e65" stroke-width="1.5"></path>
        <path d="M965.51 221L852.63 345.61" stroke="#132e65" stroke-width="1.5"></path>
        <path d="M965.51 221L1136.27 215.97" stroke="#132e65" stroke-width="1.5"></path>
        <path d="M965.51 221L1008.12 51.46" stroke="#132e65" stroke-width="1.5"></path>
        <path d="M982.87 351.45L982.87 351.45" stroke="#132e65" stroke-width="1.5"></path>
        <path d="M982.87 351.45L1099.91 387.59" stroke="#132e65" stroke-width="1.5"></path>
        <path d="M982.87 351.45L852.63 345.61" stroke="#132e65" stroke-width="1.5"></path>
        <path d="M982.87 351.45L1002.09 539.87" stroke="#132e65" stroke-width="1.5"></path>
        <path d="M982.87 351.45L1136.27 215.97" stroke="#132e65" stroke-width="1.5"></path>
        <path d="M982.87 351.45L793.04 256.82" stroke="#132e65" stroke-width="1.5"></path>
        <path d="M1002.09 539.87L1002.09 539.87" stroke="#132e65" stroke-width="1.5"></path>
        <path d="M1002.09 539.87L1127.05 524.41" stroke="#132e65" stroke-width="1.5"></path>
        <path d="M963.1 660.2L963.1 660.2" stroke="#132e65" stroke-width="1.5"></path>
        <path d="M963.1 660.2L1002.09 539.87" stroke="#132e65" stroke-width="1.5"></path>
        <path d="M963.1 660.2L1091.69 697.84" stroke="#132e65" stroke-width="1.5"></path>
        <path d="M963.1 660.2L1127.05 524.41" stroke="#132e65" stroke-width="1.5"></path>
        <path d="M963.1 660.2L699.31 699.54" stroke="#132e65" stroke-width="1.5"></path>
        <path d="M963.1 660.2L705.67 497.95" stroke="#132e65" stroke-width="1.5"></path>
        <path d="M1089.75 -45.3L1089.75 -45.3" stroke="#132e65" stroke-width="1.5"></path>
        <path d="M1089.75 -45.3L1008.12 51.46" stroke="#132e65" stroke-width="1.5"></path>
        <path d="M1089.75 -45.3L1104.57 109.41" stroke="#132e65" stroke-width="1.5"></path>
        <path d="M1089.75 -45.3L1244.61 -94.75" stroke="#132e65" stroke-width="1.5"></path>
        <path d="M1104.57 109.41L1104.57 109.41" stroke="#132e65" stroke-width="1.5"></path>
        <path d="M1104.57 109.41L1136.27 215.97" stroke="#132e65" stroke-width="1.5"></path>
        <path d="M1104.57 109.41L1245.79 79.44" stroke="#132e65" stroke-width="1.5"></path>
        <path d="M1136.27 215.97L1136.27 215.97" stroke="#132e65" stroke-width="1.5"></path>
        <path d="M1136.27 215.97L1257.9 203.82" stroke="#132e65" stroke-width="1.5"></path>
        <path d="M1136.27 215.97L1245.79 79.44" stroke="#132e65" stroke-width="1.5"></path>
        <path d="M1136.27 215.97L1099.91 387.59" stroke="#132e65" stroke-width="1.5"></path>
        <path d="M1136.27 215.97L1263.33 350.82" stroke="#132e65" stroke-width="1.5"></path>
        <path d="M1099.91 387.59L1099.91 387.59" stroke="#132e65" stroke-width="1.5"></path>
        <path d="M1127.05 524.41L1127.05 524.41" stroke="#132e65" stroke-width="1.5"></path>
        <path d="M1127.05 524.41L1099.91 387.59" stroke="#132e65" stroke-width="1.5"></path>
        <path d="M1091.69 697.84L1091.69 697.84" stroke="#132e65" stroke-width="1.5"></path>
        <path d="M1091.69 697.84L1127.05 524.41" stroke="#132e65" stroke-width="1.5"></path>
        <path d="M1091.69 697.84L1002.09 539.87" stroke="#132e65" stroke-width="1.5"></path>
        <path d="M1244.61 -94.75L1244.61 -94.75" stroke="#132e65" stroke-width="1.5"></path>
        <path d="M1244.61 -94.75L1411.47 -77.78" stroke="#132e65" stroke-width="1.5"></path>
        <path d="M1244.61 -94.75L1245.79 79.44" stroke="#132e65" stroke-width="1.5"></path>
        <path d="M1245.79 79.44L1245.79 79.44" stroke="#132e65" stroke-width="1.5"></path>
        <path d="M1245.79 79.44L1257.9 203.82" stroke="#132e65" stroke-width="1.5"></path>
        <path d="M1257.9 203.82L1257.9 203.82" stroke="#132e65" stroke-width="1.5"></path>
        <path d="M1257.9 203.82L1263.33 350.82" stroke="#132e65" stroke-width="1.5"></path>
        <path d="M1257.9 203.82L1396.92 112.14" stroke="#132e65" stroke-width="1.5"></path>
        <path d="M1257.9 203.82L1429.41 229.96" stroke="#132e65" stroke-width="1.5"></path>
        <path d="M1257.9 203.82L1104.57 109.41" stroke="#132e65" stroke-width="1.5"></path>
        <path d="M1263.33 350.82L1263.33 350.82" stroke="#132e65" stroke-width="1.5"></path>
        <path d="M1263.33 350.82L1424.66 365.59" stroke="#132e65" stroke-width="1.5"></path>
        <path d="M1263.33 350.82L1099.91 387.59" stroke="#132e65" stroke-width="1.5"></path>
        <path d="M1303.08 705.8L1303.08 705.8" stroke="#132e65" stroke-width="1.5"></path>
        <path d="M1303.08 705.8L1436.22 651.15" stroke="#132e65" stroke-width="1.5"></path>
        <path d="M1303.08 705.8L1091.69 697.84" stroke="#132e65" stroke-width="1.5"></path>
        <path d="M1303.08 705.8L1127.05 524.41" stroke="#132e65" stroke-width="1.5"></path>
        <path d="M1303.08 705.8L1450.97 496.91" stroke="#132e65" stroke-width="1.5"></path>
        <path d="M1411.47 -77.78L1411.47 -77.78" stroke="#132e65" stroke-width="1.5"></path>
        <path d="M1411.47 -77.78L1396.92 112.14" stroke="#132e65" stroke-width="1.5"></path>
        <path d="M1411.47 -77.78L1601.39 -99.14" stroke="#132e65" stroke-width="1.5"></path>
        <path d="M1411.47 -77.78L1245.79 79.44" stroke="#132e65" stroke-width="1.5"></path>
        <path d="M1396.92 112.14L1396.92 112.14" stroke="#132e65" stroke-width="1.5"></path>
        <path d="M1396.92 112.14L1429.41 229.96" stroke="#132e65" stroke-width="1.5"></path>
        <path d="M1396.92 112.14L1245.79 79.44" stroke="#132e65" stroke-width="1.5"></path>
        <path d="M1396.92 112.14L1424.66 365.59" stroke="#132e65" stroke-width="1.5"></path>
        <path d="M1429.41 229.96L1429.41 229.96" stroke="#132e65" stroke-width="1.5"></path>
        <path d="M1429.41 229.96L1424.66 365.59" stroke="#132e65" stroke-width="1.5"></path>
        <path d="M1424.66 365.59L1424.66 365.59" stroke="#132e65" stroke-width="1.5"></path>
        <path d="M1424.66 365.59L1450.97 496.91" stroke="#132e65" stroke-width="1.5"></path>
        <path d="M1424.66 365.59L1585.35 385.15" stroke="#132e65" stroke-width="1.5"></path>
        <path d="M1450.97 496.91L1450.97 496.91" stroke="#132e65" stroke-width="1.5"></path>
        <path d="M1450.97 496.91L1582.36 543.84" stroke="#132e65" stroke-width="1.5"></path>
        <path d="M1450.97 496.91L1436.22 651.15" stroke="#132e65" stroke-width="1.5"></path>
        <path d="M1450.97 496.91L1585.35 385.15" stroke="#132e65" stroke-width="1.5"></path>
        <path d="M1450.97 496.91L1263.33 350.82" stroke="#132e65" stroke-width="1.5"></path>
        <path d="M1450.97 496.91L1593.28 700.58" stroke="#132e65" stroke-width="1.5"></path>
        <path d="M1436.22 651.15L1436.22 651.15" stroke="#132e65" stroke-width="1.5"></path>
        <path d="M1436.22 651.15L1593.28 700.58" stroke="#132e65" stroke-width="1.5"></path>
        <path d="M1436.22 651.15L1582.36 543.84" stroke="#132e65" stroke-width="1.5"></path>
        <path d="M1436.22 651.15L1424.66 365.59" stroke="#132e65" stroke-width="1.5"></path>
        <path d="M1601.39 -99.14L1601.39 -99.14" stroke="#132e65" stroke-width="1.5"></path>
        <path d="M1601.39 -99.14L1396.92 112.14" stroke="#132e65" stroke-width="1.5"></path>
        <path d="M1601.39 -99.14L1244.61 -94.75" stroke="#132e65" stroke-width="1.5"></path>
        <path d="M1601.39 -99.14L1429.41 229.96" stroke="#132e65" stroke-width="1.5"></path>
        <path d="M1601.39 -99.14L1245.79 79.44" stroke="#132e65" stroke-width="1.5"></path>
        <path d="M1585.35 385.15L1585.35 385.15" stroke="#132e65" stroke-width="1.5"></path>
        <path d="M1585.35 385.15L1582.36 543.84" stroke="#132e65" stroke-width="1.5"></path>
        <path d="M1582.36 543.84L1582.36 543.84" stroke="#132e65" stroke-width="1.5"></path>
        <path d="M1582.36 543.84L1593.28 700.58" stroke="#132e65" stroke-width="1.5"></path>
        <path d="M1582.36 543.84L1424.66 365.59" stroke="#132e65" stroke-width="1.5"></path>
        <path d="M1593.28 700.58L1593.28 700.58" stroke="#132e65" stroke-width="1.5"></path>
        <circle r="5" cx="-105.63" cy="406.47" fill="#132e65"></circle>
        <circle r="5" cx="-88.34" cy="548.15" fill="#132e65"></circle>
        <circle r="5" cx="-83.07" cy="675.64" fill="#132e65"></circle>
        <circle r="5" cx="109.95" cy="402.24" fill="#132e65"></circle>
        <circle r="5" cx="46.68" cy="544.59" fill="#132e65"></circle>
        <circle r="5" cx="256.39" cy="348.75" fill="#132e65"></circle>
        <circle r="5" cx="203.99" cy="496.84" fill="#132e65"></circle>
        <circle r="5" cx="369.13" cy="509.8" fill="#132e65"></circle>
        <circle r="5" cx="353.8" cy="677.77" fill="#132e65"></circle>
        <circle r="5" cx="556.29" cy="379.21" fill="#132e65"></circle>
        <circle r="5" cx="523.91" cy="541.45" fill="#132e65"></circle>
        <circle r="5" cx="504.53" cy="694.08" fill="#132e65"></circle>
        <circle r="5" cx="696.39" cy="247.42" fill="#132e65"></circle>
        <circle r="5" cx="685.51" cy="345.52" fill="#132e65"></circle>
        <circle r="5" cx="705.67" cy="497.95" fill="#132e65"></circle>
        <circle r="5" cx="699.31" cy="699.54" fill="#132e65"></circle>
        <circle r="5" cx="793.04" cy="256.82" fill="#132e65"></circle>
        <circle r="5" cx="852.63" cy="345.61" fill="#132e65"></circle>
        <circle r="5" cx="825.48" cy="694.43" fill="#132e65"></circle>
        <circle r="5" cx="966.33" cy="-66.13" fill="#132e65"></circle>
        <circle r="5" cx="1008.12" cy="51.46" fill="#132e65"></circle>
        <circle r="5" cx="965.51" cy="221" fill="#132e65"></circle>
        <circle r="5" cx="982.87" cy="351.45" fill="#132e65"></circle>
        <circle r="5" cx="1002.09" cy="539.87" fill="#132e65"></circle>
        <circle r="5" cx="963.1" cy="660.2" fill="#132e65"></circle>
        <circle r="5" cx="1089.75" cy="-45.3" fill="#132e65"></circle>
        <circle r="5" cx="1104.57" cy="109.41" fill="#132e65"></circle>
        <circle r="5" cx="1136.27" cy="215.97" fill="#132e65"></circle>
        <circle r="5" cx="1099.91" cy="387.59" fill="#132e65"></circle>
        <circle r="5" cx="1127.05" cy="524.41" fill="#132e65"></circle>
        <circle r="5" cx="1091.69" cy="697.84" fill="#132e65"></circle>
        <circle r="5" cx="1244.61" cy="-94.75" fill="#132e65"></circle>
        <circle r="5" cx="1245.79" cy="79.44" fill="#132e65"></circle>
        <circle r="5" cx="1257.9" cy="203.82" fill="#132e65"></circle>
        <circle r="5" cx="1263.33" cy="350.82" fill="#132e65"></circle>
        <circle r="5" cx="1303.08" cy="705.8" fill="#132e65"></circle>
        <circle r="5" cx="1411.47" cy="-77.78" fill="#132e65"></circle>
        <circle r="5" cx="1396.92" cy="112.14" fill="#132e65"></circle>
        <circle r="5" cx="1429.41" cy="229.96" fill="#132e65"></circle>
        <circle r="5" cx="1424.66" cy="365.59" fill="#132e65"></circle>
        <circle r="5" cx="1450.97" cy="496.91" fill="#132e65"></circle>
        <circle r="5" cx="1436.22" cy="651.15" fill="#132e65"></circle>
        <circle r="5" cx="1601.39" cy="-99.14" fill="#132e65"></circle>
        <circle r="5" cx="1585.35" cy="385.15" fill="#132e65"></circle>
        <circle r="5" cx="1582.36" cy="543.84" fill="#132e65"></circle>
        <circle r="5" cx="1593.28" cy="700.58" fill="#132e65"></circle>
        <path d="M215.8 691L215.8 691" stroke="hsl(228.5, 77.2%, 51.5%)" stroke-width="1.5"></path>
        <path d="M215.8 691L232.33 535.83" stroke="hsl(228.5, 77.2%, 51.5%)" stroke-width="1.5"></path>
        <path d="M215.8 691L47.59 699.26" stroke="hsl(228.5, 77.2%, 51.5%)" stroke-width="1.5"></path>
        <path d="M215.8 691L407.21 664.87" stroke="hsl(228.5, 77.2%, 51.5%)" stroke-width="1.5"></path>
        <path d="M215.8 691L359.91 535.79" stroke="hsl(228.5, 77.2%, 51.5%)" stroke-width="1.5"></path>
        <path d="M215.8 691L44.74 494.76" stroke="hsl(228.5, 77.2%, 51.5%)" stroke-width="1.5"></path>
        <path d="M215.8 691L-57.94 654.75" stroke="hsl(228.5, 77.2%, 51.5%)" stroke-width="1.5"></path>
        <path d="M359.91 535.79L359.91 535.79" stroke="hsl(228.5, 77.2%, 51.5%)" stroke-width="1.5"></path>
        <path d="M359.91 535.79L232.33 535.83" stroke="hsl(228.5, 77.2%, 51.5%)" stroke-width="1.5"></path>
        <path d="M359.91 535.79L407.21 664.87" stroke="hsl(228.5, 77.2%, 51.5%)" stroke-width="1.5"></path>
        <path d="M359.91 535.79L547.24 538.72" stroke="hsl(228.5, 77.2%, 51.5%)" stroke-width="1.5"></path>
        <path d="M359.91 535.79L509.96 693.55" stroke="hsl(228.5, 77.2%, 51.5%)" stroke-width="1.5"></path>
        <path d="M547.24 538.72L547.24 538.72" stroke="hsl(228.5, 77.2%, 51.5%)" stroke-width="1.5"></path>
        <path d="M547.24 538.72L666.81 548.43" stroke="hsl(228.5, 77.2%, 51.5%)" stroke-width="1.5"></path>
        <path d="M547.24 538.72L509.96 693.55" stroke="hsl(228.5, 77.2%, 51.5%)" stroke-width="1.5"></path>
        <path d="M547.24 538.72L407.21 664.87" stroke="hsl(228.5, 77.2%, 51.5%)" stroke-width="1.5"></path>
        <path d="M547.24 538.72L692.96 677.15" stroke="hsl(228.5, 77.2%, 51.5%)" stroke-width="1.5"></path>
        <path d="M692.96 677.15L692.96 677.15" stroke="hsl(228.5, 77.2%, 51.5%)" stroke-width="1.5"></path>
        <path d="M692.96 677.15L666.81 548.43" stroke="hsl(228.5, 77.2%, 51.5%)" stroke-width="1.5"></path>
        <path d="M692.96 677.15L840.91 669.85" stroke="hsl(228.5, 77.2%, 51.5%)" stroke-width="1.5"></path>
        <path d="M692.96 677.15L795.86 547.73" stroke="hsl(228.5, 77.2%, 51.5%)" stroke-width="1.5"></path>
        <path d="M692.96 677.15L509.96 693.55" stroke="hsl(228.5, 77.2%, 51.5%)" stroke-width="1.5"></path>
        <path d="M1105.43 228.03L1105.43 228.03" stroke="hsl(228.5, 77.2%, 51.5%)" stroke-width="1.5"></path>
        <path d="M1105.43 228.03L1132.81 385.22" stroke="hsl(228.5, 77.2%, 51.5%)" stroke-width="1.5"></path>
        <path d="M1105.43 228.03L1243 355.35" stroke="hsl(228.5, 77.2%, 51.5%)" stroke-width="1.5"></path>
        <path d="M1105.43 228.03L964.67 362.06" stroke="hsl(228.5, 77.2%, 51.5%)" stroke-width="1.5"></path>
        <path d="M1105.43 228.03L1296.69 191.4" stroke="hsl(228.5, 77.2%, 51.5%)" stroke-width="1.5"></path>
        <path d="M1128.33 669.67L1128.33 669.67" stroke="hsl(228.5, 77.2%, 51.5%)" stroke-width="1.5"></path>
        <path d="M1128.33 669.67L993.94 711.23" stroke="hsl(228.5, 77.2%, 51.5%)" stroke-width="1.5"></path>
        <path d="M1128.33 669.67L1118.43 509.78" stroke="hsl(228.5, 77.2%, 51.5%)" stroke-width="1.5"></path>
        <path d="M1128.33 669.67L999.08 553.98" stroke="hsl(228.5, 77.2%, 51.5%)" stroke-width="1.5"></path>
        <path d="M1128.33 669.67L1296.92 543.34" stroke="hsl(228.5, 77.2%, 51.5%)" stroke-width="1.5"></path>
        <path d="M1128.33 669.67L1132.81 385.22" stroke="hsl(228.5, 77.2%, 51.5%)" stroke-width="1.5"></path>
        <path d="M1128.33 669.67L840.91 669.85" stroke="hsl(228.5, 77.2%, 51.5%)" stroke-width="1.5"></path>
        <path d="M1296.69 191.4L1296.69 191.4" stroke="hsl(228.5, 77.2%, 51.5%)" stroke-width="1.5"></path>
        <path d="M1296.69 191.4L1247.23 75.1" stroke="hsl(228.5, 77.2%, 51.5%)" stroke-width="1.5"></path>
        <path d="M1296.69 191.4L1450.88 250.53" stroke="hsl(228.5, 77.2%, 51.5%)" stroke-width="1.5"></path>
        <path d="M1424.34 657.79L1424.34 657.79" stroke="hsl(228.5, 77.2%, 51.5%)" stroke-width="1.5"></path>
        <path d="M1424.34 657.79L1296.92 543.34" stroke="hsl(228.5, 77.2%, 51.5%)" stroke-width="1.5"></path>
        <path d="M1424.34 657.79L1543.22 503.03" stroke="hsl(228.5, 77.2%, 51.5%)" stroke-width="1.5"></path>
        <path d="M1424.34 657.79L1437.11 384.11" stroke="hsl(228.5, 77.2%, 51.5%)" stroke-width="1.5"></path>
        <path d="M1424.34 657.79L1128.33 669.67" stroke="hsl(228.5, 77.2%, 51.5%)" stroke-width="1.5"></path>
        <path d="M1424.34 657.79L1608.16 410.51" stroke="hsl(228.5, 77.2%, 51.5%)" stroke-width="1.5"></path>
        <path d="M1608.16 410.51L1608.16 410.51" stroke="hsl(228.5, 77.2%, 51.5%)" stroke-width="1.5"></path>
        <path d="M1608.16 410.51L1543.22 503.03" stroke="hsl(228.5, 77.2%, 51.5%)" stroke-width="1.5"></path>
        <path d="M1608.16 410.51L1437.11 384.11" stroke="hsl(228.5, 77.2%, 51.5%)" stroke-width="1.5"></path>
        <path d="M1608.16 410.51L1579.85 203" stroke="hsl(228.5, 77.2%, 51.5%)" stroke-width="1.5"></path>
        <path d="M-91.61 548.78L-91.61 548.78" stroke="hsl(228.5, 77.2%, 51.5%)" stroke-width="1.5"></path>
        <path d="M-91.61 548.78L-57.94 654.75" stroke="hsl(228.5, 77.2%, 51.5%)" stroke-width="1.5"></path>
        <path d="M-91.61 548.78L44.74 494.76" stroke="hsl(228.5, 77.2%, 51.5%)" stroke-width="1.5"></path>
        <path d="M-57.94 654.75L-57.94 654.75" stroke="hsl(228.5, 77.2%, 51.5%)" stroke-width="1.5"></path>
        <path d="M-57.94 654.75L47.59 699.26" stroke="hsl(228.5, 77.2%, 51.5%)" stroke-width="1.5"></path>
        <path d="M44.74 494.76L44.74 494.76" stroke="hsl(228.5, 77.2%, 51.5%)" stroke-width="1.5"></path>
        <path d="M44.74 494.76L-57.94 654.75" stroke="hsl(228.5, 77.2%, 51.5%)" stroke-width="1.5"></path>
        <path d="M44.74 494.76L232.33 535.83" stroke="hsl(228.5, 77.2%, 51.5%)" stroke-width="1.5"></path>
        <path d="M44.74 494.76L47.59 699.26" stroke="hsl(228.5, 77.2%, 51.5%)" stroke-width="1.5"></path>
        <path d="M47.59 699.26L47.59 699.26" stroke="hsl(228.5, 77.2%, 51.5%)" stroke-width="1.5"></path>
        <path d="M232.33 535.83L232.33 535.83" stroke="hsl(228.5, 77.2%, 51.5%)" stroke-width="1.5"></path>
        <path d="M407.21 664.87L407.21 664.87" stroke="hsl(228.5, 77.2%, 51.5%)" stroke-width="1.5"></path>
        <path d="M407.21 664.87L509.96 693.55" stroke="hsl(228.5, 77.2%, 51.5%)" stroke-width="1.5"></path>
        <path d="M509.96 693.55L509.96 693.55" stroke="hsl(228.5, 77.2%, 51.5%)" stroke-width="1.5"></path>
        <path d="M509.96 693.55L666.81 548.43" stroke="hsl(228.5, 77.2%, 51.5%)" stroke-width="1.5"></path>
        <path d="M703.75 375.36L703.75 375.36" stroke="hsl(228.5, 77.2%, 51.5%)" stroke-width="1.5"></path>
        <path d="M703.75 375.36L819.88 384.61" stroke="hsl(228.5, 77.2%, 51.5%)" stroke-width="1.5"></path>
        <path d="M703.75 375.36L666.81 548.43" stroke="hsl(228.5, 77.2%, 51.5%)" stroke-width="1.5"></path>
        <path d="M703.75 375.36L795.86 547.73" stroke="hsl(228.5, 77.2%, 51.5%)" stroke-width="1.5"></path>
        <path d="M703.75 375.36L547.24 538.72" stroke="hsl(228.5, 77.2%, 51.5%)" stroke-width="1.5"></path>
        <path d="M666.81 548.43L666.81 548.43" stroke="hsl(228.5, 77.2%, 51.5%)" stroke-width="1.5"></path>
        <path d="M666.81 548.43L795.86 547.73" stroke="hsl(228.5, 77.2%, 51.5%)" stroke-width="1.5"></path>
        <path d="M666.81 548.43L840.91 669.85" stroke="hsl(228.5, 77.2%, 51.5%)" stroke-width="1.5"></path>
        <path d="M819.88 384.61L819.88 384.61" stroke="hsl(228.5, 77.2%, 51.5%)" stroke-width="1.5"></path>
        <path d="M819.88 384.61L964.67 362.06" stroke="hsl(228.5, 77.2%, 51.5%)" stroke-width="1.5"></path>
        <path d="M819.88 384.61L795.86 547.73" stroke="hsl(228.5, 77.2%, 51.5%)" stroke-width="1.5"></path>
        <path d="M819.88 384.61L666.81 548.43" stroke="hsl(228.5, 77.2%, 51.5%)" stroke-width="1.5"></path>
        <path d="M795.86 547.73L795.86 547.73" stroke="hsl(228.5, 77.2%, 51.5%)" stroke-width="1.5"></path>
        <path d="M795.86 547.73L840.91 669.85" stroke="hsl(228.5, 77.2%, 51.5%)" stroke-width="1.5"></path>
        <path d="M840.91 669.85L840.91 669.85" stroke="hsl(228.5, 77.2%, 51.5%)" stroke-width="1.5"></path>
        <path d="M840.91 669.85L993.94 711.23" stroke="hsl(228.5, 77.2%, 51.5%)" stroke-width="1.5"></path>
        <path d="M840.91 669.85L999.08 553.98" stroke="hsl(228.5, 77.2%, 51.5%)" stroke-width="1.5"></path>
        <path d="M840.91 669.85L819.88 384.61" stroke="hsl(228.5, 77.2%, 51.5%)" stroke-width="1.5"></path>
        <path d="M964.67 362.06L964.67 362.06" stroke="hsl(228.5, 77.2%, 51.5%)" stroke-width="1.5"></path>
        <path d="M999.08 553.98L999.08 553.98" stroke="hsl(228.5, 77.2%, 51.5%)" stroke-width="1.5"></path>
        <path d="M999.08 553.98L1118.43 509.78" stroke="hsl(228.5, 77.2%, 51.5%)" stroke-width="1.5"></path>
        <path d="M999.08 553.98L993.94 711.23" stroke="hsl(228.5, 77.2%, 51.5%)" stroke-width="1.5"></path>
        <path d="M993.94 711.23L993.94 711.23" stroke="hsl(228.5, 77.2%, 51.5%)" stroke-width="1.5"></path>
        <path d="M1132.81 385.22L1132.81 385.22" stroke="hsl(228.5, 77.2%, 51.5%)" stroke-width="1.5"></path>
        <path d="M1132.81 385.22L1243 355.35" stroke="hsl(228.5, 77.2%, 51.5%)" stroke-width="1.5"></path>
        <path d="M1132.81 385.22L1118.43 509.78" stroke="hsl(228.5, 77.2%, 51.5%)" stroke-width="1.5"></path>
        <path d="M1118.43 509.78L1118.43 509.78" stroke="hsl(228.5, 77.2%, 51.5%)" stroke-width="1.5"></path>
        <path d="M1118.43 509.78L1296.92 543.34" stroke="hsl(228.5, 77.2%, 51.5%)" stroke-width="1.5"></path>
        <path d="M1118.43 509.78L1243 355.35" stroke="hsl(228.5, 77.2%, 51.5%)" stroke-width="1.5"></path>
        <path d="M1118.43 509.78L964.67 362.06" stroke="hsl(228.5, 77.2%, 51.5%)" stroke-width="1.5"></path>
        <path d="M1247.23 75.1L1247.23 75.1" stroke="hsl(228.5, 77.2%, 51.5%)" stroke-width="1.5"></path>
        <path d="M1247.23 75.1L1105.43 228.03" stroke="hsl(228.5, 77.2%, 51.5%)" stroke-width="1.5"></path>
        <path d="M1247.23 75.1L1458.21 92.36" stroke="hsl(228.5, 77.2%, 51.5%)" stroke-width="1.5"></path>
        <path d="M1247.23 75.1L1450.88 250.53" stroke="hsl(228.5, 77.2%, 51.5%)" stroke-width="1.5"></path>
        <path d="M1247.23 75.1L1458.16 -98.5" stroke="hsl(228.5, 77.2%, 51.5%)" stroke-width="1.5"></path>
        <path d="M1247.23 75.1L1243 355.35" stroke="hsl(228.5, 77.2%, 51.5%)" stroke-width="1.5"></path>
        <path d="M1243 355.35L1243 355.35" stroke="hsl(228.5, 77.2%, 51.5%)" stroke-width="1.5"></path>
        <path d="M1243 355.35L1296.69 191.4" stroke="hsl(228.5, 77.2%, 51.5%)" stroke-width="1.5"></path>
        <path d="M1296.92 543.34L1296.92 543.34" stroke="hsl(228.5, 77.2%, 51.5%)" stroke-width="1.5"></path>
        <path d="M1458.16 -98.5L1458.16 -98.5" stroke="hsl(228.5, 77.2%, 51.5%)" stroke-width="1.5"></path>
        <path d="M1458.16 -98.5L1458.21 92.36" stroke="hsl(228.5, 77.2%, 51.5%)" stroke-width="1.5"></path>
        <path d="M1458.16 -98.5L1608.67 100.93" stroke="hsl(228.5, 77.2%, 51.5%)" stroke-width="1.5"></path>
        <path d="M1458.21 92.36L1458.21 92.36" stroke="hsl(228.5, 77.2%, 51.5%)" stroke-width="1.5"></path>
        <path d="M1458.21 92.36L1608.67 100.93" stroke="hsl(228.5, 77.2%, 51.5%)" stroke-width="1.5"></path>
        <path d="M1458.21 92.36L1450.88 250.53" stroke="hsl(228.5, 77.2%, 51.5%)" stroke-width="1.5"></path>
        <path d="M1458.21 92.36L1579.85 203" stroke="hsl(228.5, 77.2%, 51.5%)" stroke-width="1.5"></path>
        <path d="M1458.21 92.36L1296.69 191.4" stroke="hsl(228.5, 77.2%, 51.5%)" stroke-width="1.5"></path>
        <path d="M1450.88 250.53L1450.88 250.53" stroke="hsl(228.5, 77.2%, 51.5%)" stroke-width="1.5"></path>
        <path d="M1450.88 250.53L1437.11 384.11" stroke="hsl(228.5, 77.2%, 51.5%)" stroke-width="1.5"></path>
        <path d="M1450.88 250.53L1579.85 203" stroke="hsl(228.5, 77.2%, 51.5%)" stroke-width="1.5"></path>
        <path d="M1450.88 250.53L1608.67 100.93" stroke="hsl(228.5, 77.2%, 51.5%)" stroke-width="1.5"></path>
        <path d="M1437.11 384.11L1437.11 384.11" stroke="hsl(228.5, 77.2%, 51.5%)" stroke-width="1.5"></path>
        <path d="M1437.11 384.11L1543.22 503.03" stroke="hsl(228.5, 77.2%, 51.5%)" stroke-width="1.5"></path>
        <path d="M1437.11 384.11L1243 355.35" stroke="hsl(228.5, 77.2%, 51.5%)" stroke-width="1.5"></path>
        <path d="M1437.11 384.11L1296.92 543.34" stroke="hsl(228.5, 77.2%, 51.5%)" stroke-width="1.5"></path>
        <path d="M1608.67 100.93L1608.67 100.93" stroke="hsl(228.5, 77.2%, 51.5%)" stroke-width="1.5"></path>
        <path d="M1608.67 100.93L1579.85 203" stroke="hsl(228.5, 77.2%, 51.5%)" stroke-width="1.5"></path>
        <path d="M1608.67 100.93L1608.16 410.51" stroke="hsl(228.5, 77.2%, 51.5%)" stroke-width="1.5"></path>
        <path d="M1608.67 100.93L1296.69 191.4" stroke="hsl(228.5, 77.2%, 51.5%)" stroke-width="1.5"></path>
        <path d="M1579.85 203L1579.85 203" stroke="hsl(228.5, 77.2%, 51.5%)" stroke-width="1.5"></path>
        <path d="M1543.22 503.03L1543.22 503.03" stroke="hsl(228.5, 77.2%, 51.5%)" stroke-width="1.5"></path>
        <path d="M1543.22 503.03L1296.92 543.34" stroke="hsl(228.5, 77.2%, 51.5%)" stroke-width="1.5"></path>
        <circle r="25" cx="215.8" cy="691" fill="url(&quot;#SvgjsRadialGradient1001&quot;)"></circle>
        <circle r="25" cx="359.91" cy="535.79" fill="url(&quot;#SvgjsRadialGradient1001&quot;)"></circle>
        <circle r="25" cx="547.24" cy="538.72" fill="url(&quot;#SvgjsRadialGradient1001&quot;)"></circle>
        <circle r="25" cx="692.96" cy="677.15" fill="url(&quot;#SvgjsRadialGradient1001&quot;)"></circle>
        <circle r="25" cx="1105.43" cy="228.03" fill="url(&quot;#SvgjsRadialGradient1001&quot;)"></circle>
        <circle r="25" cx="1128.33" cy="669.67" fill="url(&quot;#SvgjsRadialGradient1001&quot;)"></circle>
        <circle r="25" cx="1296.69" cy="191.4" fill="url(&quot;#SvgjsRadialGradient1001&quot;)"></circle>
        <circle r="25" cx="1424.34" cy="657.79" fill="url(&quot;#SvgjsRadialGradient1001&quot;)"></circle>
        <circle r="25" cx="1608.16" cy="410.51" fill="url(&quot;#SvgjsRadialGradient1001&quot;)"></circle>
        <circle r="5" cx="-91.61" cy="548.78" fill="#8b9ad9"></circle>
        <circle r="5" cx="-57.94" cy="654.75" fill="#8b9ad9"></circle>
        <circle r="5" cx="44.74" cy="494.76" fill="#8b9ad9"></circle>
        <circle r="5" cx="47.59" cy="699.26" fill="#8b9ad9"></circle>
        <circle r="5" cx="232.33" cy="535.83" fill="#8b9ad9"></circle>
        <circle r="5" cx="407.21" cy="664.87" fill="#8b9ad9"></circle>
        <circle r="5" cx="509.96" cy="693.55" fill="#8b9ad9"></circle>
        <circle r="5" cx="703.75" cy="375.36" fill="#8b9ad9"></circle>
        <circle r="5" cx="666.81" cy="548.43" fill="#8b9ad9"></circle>
        <circle r="5" cx="819.88" cy="384.61" fill="#8b9ad9"></circle>
        <circle r="5" cx="795.86" cy="547.73" fill="#8b9ad9"></circle>
        <circle r="5" cx="840.91" cy="669.85" fill="#8b9ad9"></circle>
        <circle r="5" cx="964.67" cy="362.06" fill="#8b9ad9"></circle>
        <circle r="5" cx="999.08" cy="553.98" fill="#8b9ad9"></circle>
        <circle r="5" cx="993.94" cy="711.23" fill="#8b9ad9"></circle>
        <circle r="5" cx="1132.81" cy="385.22" fill="#8b9ad9"></circle>
        <circle r="5" cx="1118.43" cy="509.78" fill="#8b9ad9"></circle>
        <circle r="5" cx="1247.23" cy="75.1" fill="#8b9ad9"></circle>
        <circle r="5" cx="1243" cy="355.35" fill="#8b9ad9"></circle>
        <circle r="5" cx="1296.92" cy="543.34" fill="#8b9ad9"></circle>
        <circle r="5" cx="1458.16" cy="-98.5" fill="#8b9ad9"></circle>
        <circle r="5" cx="1458.21" cy="92.36" fill="#8b9ad9"></circle>
        <circle r="5" cx="1450.88" cy="250.53" fill="#8b9ad9"></circle>
        <circle r="5" cx="1437.11" cy="384.11" fill="#8b9ad9"></circle>
        <circle r="5" cx="1608.67" cy="100.93" fill="#8b9ad9"></circle>
        <circle r="5" cx="1579.85" cy="203" fill="#8b9ad9"></circle>
        <circle r="5" cx="1543.22" cy="503.03" fill="#8b9ad9"></circle>
    </g>
    <defs>
        <mask id="SvgjsMask1000">
            <rect width="1440" height="560" fill="#ffffff"></rect>
        </mask>
        <radialGradient id="SvgjsRadialGradient1001">
            <stop stop-color="#ffffff" offset="0.1"></stop>
            <stop stop-color="#1735b3" offset="0.2"></stop>
            <stop stop-color="rgba(23, 53, 179, 0)" offset="1"></stop>
        </radialGradient>
    </defs>
</svg>