<svg xmlns="http://www.w3.org/2000/svg" version="1.1" xmlns:xlink="http://www.w3.org/1999/xlink" xmlns:svgjs="http://svgjs.dev/svgjs" width="1440" height="560" preserveAspectRatio="none" viewBox="0 0 1440 560">
    <g mask="url(&quot;#SvgjsMask1000&quot;)" fill="none">
        <rect width="1440" height="560" x="0" y="0" fill="#0e2a47"></rect>
        <path d="M12.83 -58.59L77.78 -21.09L77.78 53.91L12.83 91.41L-52.12 53.91L-52.12 -21.09zM532.46 166.41L597.41 203.91L597.41 278.91L532.46 316.41L467.51 278.91L467.51 203.91zM597.41 278.91L662.37 316.41L662.37 391.41L597.41 428.91L532.46 391.41L532.46 316.41zM597.41 503.91L662.37 541.41L662.37 616.41L597.41 653.91L532.46 616.41L532.46 541.41zM727.32 53.91L792.28 91.41L792.28 166.41L727.32 203.91L662.37 166.41L662.37 91.41zM857.23 53.91L922.18 91.41L922.18 166.41L857.23 203.91L792.27 166.41L792.27 91.41zM1052.09 166.41L1117.04 203.91L1117.04 278.91L1052.09 316.41L987.14 278.91L987.14 203.91zM1117.04 278.91L1182 316.41L1182 391.41L1117.04 428.91L1052.09 391.41L1052.09 316.41zM1506.77 503.91L1571.72 541.41L1571.72 616.41L1506.77 653.91L1441.81 616.41L1441.81 541.41z" stroke="#03305d" stroke-width="2"></path>
        <path d="M5.33 -58.59 a7.5 7.5 0 1 0 15 0 a7.5 7.5 0 1 0 -15 0zM70.28 -21.09 a7.5 7.5 0 1 0 15 0 a7.5 7.5 0 1 0 -15 0zM70.28 53.91 a7.5 7.5 0 1 0 15 0 a7.5 7.5 0 1 0 -15 0zM5.33 91.41 a7.5 7.5 0 1 0 15 0 a7.5 7.5 0 1 0 -15 0zM-59.62 53.91 a7.5 7.5 0 1 0 15 0 a7.5 7.5 0 1 0 -15 0zM-59.62 -21.09 a7.5 7.5 0 1 0 15 0 a7.5 7.5 0 1 0 -15 0zM524.96 166.41 a7.5 7.5 0 1 0 15 0 a7.5 7.5 0 1 0 -15 0zM589.91 203.91 a7.5 7.5 0 1 0 15 0 a7.5 7.5 0 1 0 -15 0zM589.91 278.91 a7.5 7.5 0 1 0 15 0 a7.5 7.5 0 1 0 -15 0zM524.96 316.41 a7.5 7.5 0 1 0 15 0 a7.5 7.5 0 1 0 -15 0zM460.01 278.91 a7.5 7.5 0 1 0 15 0 a7.5 7.5 0 1 0 -15 0zM460.01 203.91 a7.5 7.5 0 1 0 15 0 a7.5 7.5 0 1 0 -15 0zM654.87 316.41 a7.5 7.5 0 1 0 15 0 a7.5 7.5 0 1 0 -15 0zM654.87 391.41 a7.5 7.5 0 1 0 15 0 a7.5 7.5 0 1 0 -15 0zM589.91 428.91 a7.5 7.5 0 1 0 15 0 a7.5 7.5 0 1 0 -15 0zM524.96 391.41 a7.5 7.5 0 1 0 15 0 a7.5 7.5 0 1 0 -15 0zM589.91 503.91 a7.5 7.5 0 1 0 15 0 a7.5 7.5 0 1 0 -15 0zM654.87 541.41 a7.5 7.5 0 1 0 15 0 a7.5 7.5 0 1 0 -15 0zM654.87 616.41 a7.5 7.5 0 1 0 15 0 a7.5 7.5 0 1 0 -15 0zM589.91 653.91 a7.5 7.5 0 1 0 15 0 a7.5 7.5 0 1 0 -15 0zM524.96 616.41 a7.5 7.5 0 1 0 15 0 a7.5 7.5 0 1 0 -15 0zM524.96 541.41 a7.5 7.5 0 1 0 15 0 a7.5 7.5 0 1 0 -15 0zM719.82 53.91 a7.5 7.5 0 1 0 15 0 a7.5 7.5 0 1 0 -15 0zM784.78 91.41 a7.5 7.5 0 1 0 15 0 a7.5 7.5 0 1 0 -15 0zM784.78 166.41 a7.5 7.5 0 1 0 15 0 a7.5 7.5 0 1 0 -15 0zM719.82 203.91 a7.5 7.5 0 1 0 15 0 a7.5 7.5 0 1 0 -15 0zM654.87 166.41 a7.5 7.5 0 1 0 15 0 a7.5 7.5 0 1 0 -15 0zM654.87 91.41 a7.5 7.5 0 1 0 15 0 a7.5 7.5 0 1 0 -15 0zM849.73 53.91 a7.5 7.5 0 1 0 15 0 a7.5 7.5 0 1 0 -15 0zM914.68 91.41 a7.5 7.5 0 1 0 15 0 a7.5 7.5 0 1 0 -15 0zM914.68 166.41 a7.5 7.5 0 1 0 15 0 a7.5 7.5 0 1 0 -15 0zM849.73 203.91 a7.5 7.5 0 1 0 15 0 a7.5 7.5 0 1 0 -15 0zM784.77 166.41 a7.5 7.5 0 1 0 15 0 a7.5 7.5 0 1 0 -15 0zM784.77 91.41 a7.5 7.5 0 1 0 15 0 a7.5 7.5 0 1 0 -15 0zM1044.59 166.41 a7.5 7.5 0 1 0 15 0 a7.5 7.5 0 1 0 -15 0zM1109.54 203.91 a7.5 7.5 0 1 0 15 0 a7.5 7.5 0 1 0 -15 0zM1109.54 278.91 a7.5 7.5 0 1 0 15 0 a7.5 7.5 0 1 0 -15 0zM1044.59 316.41 a7.5 7.5 0 1 0 15 0 a7.5 7.5 0 1 0 -15 0zM979.64 278.91 a7.5 7.5 0 1 0 15 0 a7.5 7.5 0 1 0 -15 0zM979.64 203.91 a7.5 7.5 0 1 0 15 0 a7.5 7.5 0 1 0 -15 0zM1174.5 316.41 a7.5 7.5 0 1 0 15 0 a7.5 7.5 0 1 0 -15 0zM1174.5 391.41 a7.5 7.5 0 1 0 15 0 a7.5 7.5 0 1 0 -15 0zM1109.54 428.91 a7.5 7.5 0 1 0 15 0 a7.5 7.5 0 1 0 -15 0zM1044.59 391.41 a7.5 7.5 0 1 0 15 0 a7.5 7.5 0 1 0 -15 0zM1499.27 503.91 a7.5 7.5 0 1 0 15 0 a7.5 7.5 0 1 0 -15 0zM1564.22 541.41 a7.5 7.5 0 1 0 15 0 a7.5 7.5 0 1 0 -15 0zM1564.22 616.41 a7.5 7.5 0 1 0 15 0 a7.5 7.5 0 1 0 -15 0zM1499.27 653.91 a7.5 7.5 0 1 0 15 0 a7.5 7.5 0 1 0 -15 0zM1434.31 616.41 a7.5 7.5 0 1 0 15 0 a7.5 7.5 0 1 0 -15 0zM1434.31 541.41 a7.5 7.5 0 1 0 15 0 a7.5 7.5 0 1 0 -15 0z" fill="#03305d"></path>
        <path d="M20.08 -21.55L63.38 3.45L63.38 53.45L20.08 78.45L-23.22 53.45L-23.22 3.45zM20.08 428.45L63.38 453.45L63.38 503.45L20.08 528.45L-23.22 503.45L-23.22 453.45zM63.38 503.45L106.69 528.45L106.69 578.45L63.38 603.45L20.08 578.45L20.08 528.45zM149.99 53.45L193.29 78.45L193.29 128.45L149.99 153.45L106.69 128.45L106.69 78.45zM149.99 353.45L193.29 378.45L193.29 428.45L149.99 453.45L106.69 428.45L106.69 378.45zM106.69 428.45L149.99 453.45L149.99 503.45L106.69 528.45L63.38 503.45L63.38 453.45zM149.99 503.45L193.29 528.45L193.29 578.45L149.99 603.45L106.69 578.45L106.69 528.45zM236.59 53.45L279.89 78.45L279.89 128.45L236.59 153.45L193.29 128.45L193.29 78.45zM193.29 128.45L236.59 153.45L236.59 203.45L193.29 228.45L149.99 203.45L149.99 153.45zM236.59 203.45L279.89 228.45L279.89 278.45L236.59 303.45L193.29 278.45L193.29 228.45zM193.29 428.45L236.59 453.45L236.59 503.45L193.29 528.45L149.99 503.45L149.99 453.45zM236.59 503.45L279.89 528.45L279.89 578.45L236.59 603.45L193.29 578.45L193.29 528.45zM279.89 -21.55L323.2 3.45L323.2 53.45L279.89 78.45L236.59 53.45L236.59 3.45zM323.2 203.45L366.5 228.45L366.5 278.45L323.2 303.45L279.89 278.45L279.89 228.45zM279.89 278.45L323.2 303.45L323.2 353.45L279.89 378.45L236.59 353.45L236.59 303.45zM409.8 53.45L453.11 78.45L453.11 128.45L409.8 153.45L366.5 128.45L366.5 78.45zM366.5 128.45L409.8 153.45L409.8 203.45L366.5 228.45L323.2 203.45L323.2 153.45zM409.8 203.45L453.11 228.45L453.11 278.45L409.8 303.45L366.5 278.45L366.5 228.45zM366.5 278.45L409.8 303.45L409.8 353.45L366.5 378.45L323.2 353.45L323.2 303.45zM366.5 428.45L409.8 453.45L409.8 503.45L366.5 528.45L323.2 503.45L323.2 453.45zM453.11 128.45L496.41 153.45L496.41 203.45L453.11 228.45L409.8 203.45L409.8 153.45zM453.11 428.45L496.41 453.45L496.41 503.45L453.11 528.45L409.8 503.45L409.8 453.45zM539.71 128.45L583.01 153.45L583.01 203.45L539.71 228.45L496.41 203.45L496.41 153.45zM583.01 203.45L626.32 228.45L626.32 278.45L583.01 303.45L539.71 278.45L539.71 228.45zM539.71 278.45L583.01 303.45L583.01 353.45L539.71 378.45L496.41 353.45L496.41 303.45zM583.01 353.45L626.32 378.45L626.32 428.45L583.01 453.45L539.71 428.45L539.71 378.45zM539.71 428.45L583.01 453.45L583.01 503.45L539.71 528.45L496.41 503.45L496.41 453.45zM583.01 503.45L626.32 528.45L626.32 578.45L583.01 603.45L539.71 578.45L539.71 528.45zM669.62 53.45L712.92 78.45L712.92 128.45L669.62 153.45L626.32 128.45L626.32 78.45zM626.32 128.45L669.62 153.45L669.62 203.45L626.32 228.45L583.01 203.45L583.01 153.45zM669.62 353.45L712.92 378.45L712.92 428.45L669.62 453.45L626.32 428.45L626.32 378.45zM626.32 428.45L669.62 453.45L669.62 503.45L626.32 528.45L583.01 503.45L583.01 453.45zM669.62 503.45L712.92 528.45L712.92 578.45L669.62 603.45L626.32 578.45L626.32 528.45zM712.92 -21.55L756.22 3.45L756.22 53.45L712.92 78.45L669.62 53.45L669.62 3.45zM756.22 53.45L799.53 78.45L799.53 128.45L756.22 153.45L712.92 128.45L712.92 78.45zM712.92 278.45L756.22 303.45L756.22 353.45L712.92 378.45L669.62 353.45L669.62 303.45zM712.92 428.45L756.22 453.45L756.22 503.45L712.92 528.45L669.62 503.45L669.62 453.45zM756.22 503.45L799.53 528.45L799.53 578.45L756.22 603.45L712.92 578.45L712.92 528.45zM799.53 128.45L842.83 153.45L842.83 203.45L799.53 228.45L756.22 203.45L756.22 153.45zM842.83 203.45L886.13 228.45L886.13 278.45L842.83 303.45L799.53 278.45L799.53 228.45zM799.53 278.45L842.83 303.45L842.83 353.45L799.53 378.45L756.22 353.45L756.22 303.45zM799.53 428.45L842.83 453.45L842.83 503.45L799.53 528.45L756.22 503.45L756.22 453.45zM886.13 -21.55L929.43 3.45L929.43 53.45L886.13 78.45L842.83 53.45L842.83 3.45zM886.13 278.45L929.43 303.45L929.43 353.45L886.13 378.45L842.83 353.45L842.83 303.45zM929.43 503.45L972.74 528.45L972.74 578.45L929.43 603.45L886.13 578.45L886.13 528.45zM972.74 -21.55L1016.04 3.45L1016.04 53.45L972.74 78.45L929.43 53.45L929.43 3.45zM1016.04 53.45L1059.34 78.45L1059.34 128.45L1016.04 153.45L972.74 128.45L972.74 78.45zM1016.04 353.45L1059.34 378.45L1059.34 428.45L1016.04 453.45L972.74 428.45L972.74 378.45zM972.74 428.45L1016.04 453.45L1016.04 503.45L972.74 528.45L929.43 503.45L929.43 453.45zM1016.04 503.45L1059.34 528.45L1059.34 578.45L1016.04 603.45L972.74 578.45L972.74 528.45zM1059.34 278.45L1102.64 303.45L1102.64 353.45L1059.34 378.45L1016.04 353.45L1016.04 303.45zM1102.64 503.45L1145.94 528.45L1145.94 578.45L1102.64 603.45L1059.34 578.45L1059.34 528.45zM1145.94 -21.55L1189.25 3.45L1189.25 53.45L1145.94 78.45L1102.64 53.45L1102.64 3.45zM1145.94 128.45L1189.25 153.45L1189.25 203.45L1145.94 228.45L1102.64 203.45L1102.64 153.45zM1275.85 203.45L1319.15 228.45L1319.15 278.45L1275.85 303.45L1232.55 278.45L1232.55 228.45zM1232.55 278.45L1275.85 303.45L1275.85 353.45L1232.55 378.45L1189.25 353.45L1189.25 303.45zM1275.85 353.45L1319.15 378.45L1319.15 428.45L1275.85 453.45L1232.55 428.45L1232.55 378.45zM1319.15 -21.55L1362.46 3.45L1362.46 53.45L1319.15 78.45L1275.85 53.45L1275.85 3.45zM1362.46 203.45L1405.76 228.45L1405.76 278.45L1362.46 303.45L1319.15 278.45L1319.15 228.45zM1319.15 278.45L1362.46 303.45L1362.46 353.45L1319.15 378.45L1275.85 353.45L1275.85 303.45zM1362.46 503.45L1405.76 528.45L1405.76 578.45L1362.46 603.45L1319.15 578.45L1319.15 528.45zM1405.76 -21.55L1449.06 3.45L1449.06 53.45L1405.76 78.45L1362.46 53.45L1362.46 3.45zM1449.06 53.45L1492.37 78.45L1492.37 128.45L1449.06 153.45L1405.76 128.45L1405.76 78.45zM1405.76 278.45L1449.06 303.45L1449.06 353.45L1405.76 378.45L1362.46 353.45L1362.46 303.45zM1449.06 353.45L1492.37 378.45L1492.37 428.45L1449.06 453.45L1405.76 428.45L1405.76 378.45zM1405.76 428.45L1449.06 453.45L1449.06 503.45L1405.76 528.45L1362.46 503.45L1362.46 453.45zM1449.06 503.45L1492.37 528.45L1492.37 578.45L1449.06 603.45L1405.76 578.45L1405.76 528.45z" stroke="rgba(6, 80, 156, 0.93)" stroke-width="2"></path>
    </g>
    <defs>
        <mask id="SvgjsMask1000">
            <rect width="1440" height="560" fill="#ffffff"></rect>
        </mask>
    </defs>
</svg>